<?xml version="1.0" encoding="UTF-8"?>
<svg width="41px" height="57px" viewBox="0 0 41 57" version="1.1" xmlns="http://www.w3.org/2000/svg" xmlns:xlink="http://www.w3.org/1999/xlink">
    <!-- Generator: Sketch 63.1 (92452) - https://sketch.com -->
    <title>Logo</title>
    <desc>Created with Sketch.</desc>
    <g id="v3" stroke="none" stroke-width="1" fill="none" fill-rule="evenodd" stroke-linejoin="bevel">
        <g id="wb/Home" transform="translate(-157.000000, -289.000000)" fill="#000000" stroke="#000000" stroke-width="0.5">
            <g id="Group-6" transform="translate(158.000000, 290.000000)">
                <g id="Logo">
                    <path d="M8.63689179,0.80548385 C8.79891678,-0.285566171 10.6695967,-0.251286301 10.8429947,0.80548385 C12.4275259,10.4623722 14.5034412,24.0917254 16.1958628,35.0233562 L16.258,35.424 L15.9117784,35.4785387 C15.5516504,35.5381228 15.1931601,35.6077755 14.8370792,35.6872023 L14.562,35.75 L14.576,35.844 L16.264,35.461 L16.258,35.424 L16.2724236,35.4223216 C20.4856529,34.8058652 24.8867603,35.5731976 28.2500458,38.1917411 L28.5357573,38.4207322 C29.6635244,39.351439 28.0368668,40.9279974 26.9173382,40.0044567 C24.0754981,37.6597329 20.251021,36.9689794 16.6314964,37.4725149 L16.612,37.475 L16.6144266,37.4917881 L16.58,37.497 L16.6638762,38.0395847 C17.91111,46.056448 18.8794562,52.0823314 19.1638994,53.0293439 L19.1834859,53.0895287 C20.0956359,53.0895287 26.5328721,50.0245597 30.4992804,47.680325 C33.2775055,46.0383753 36.848463,43.865233 37.3766461,40.4299483 C37.6860498,38.4162533 31.3441904,11.056696 29.3998905,2.61673438 C29.0767559,1.21037269 31.2837743,0.615580234 31.6069089,2.02104615 C32.8033307,7.21562666 37.172513,26.7183697 38.165717,31.274265 C39.0023884,35.1162301 40.7462167,39.5431342 38.7781165,43.2901475 C37.0736503,46.5373202 33.5136775,48.5841587 30.3958407,50.3389756 C26.6335656,52.4565801 22.6644111,54.2096055 18.5716782,55.620446 C17.7954229,55.8882818 17.2059082,55.2039121 17.1226073,54.541041 C16.5476208,49.9475234 15.8251419,44.5970125 14.9551706,38.4895085 L14.859,37.818 L14.8443116,37.8216785 C14.6039914,37.8823944 14.3655511,37.9483252 14.129369,38.0193244 L13.776837,38.1296063 C9.03783498,39.6703338 5.22155151,43.0859116 2.02499073,46.7254323 C1.30274375,47.546855 0.18321516,46.7863448 0.0715369197,45.93357 C-0.173789051,44.0578239 0.254616002,42.2331368 0.708652126,40.4209905 C1.1718422,38.5739091 1.62953991,36.7250362 2.0698451,34.8725802 C2.95045549,31.1667723 3.77980373,27.4493195 4.55514365,23.7220131 C6.13694692,16.1222854 7.49356292,8.47956064 8.63689179,0.80548385 Z M9.71354028,3.78564492 C8.5921809,11.3146067 7.92994869,16.6447008 6.40713912,24.0144634 C5.63658068,27.7436445 2.0698451,42.3327453 2.0698451,43.8777799 C6.40713912,40.4209905 8.36776554,37.4773227 13.776837,35.9545107 C14.010497,35.8887236 14.245571,35.8271497 14.4818301,35.7698762 L14.562,35.75 L14.5078938,35.3726737 C13.2440825,26.6279005 11.7014182,16.4519371 9.87990095,4.84478338 Z"></path>
                </g>
            </g>
        </g>
    </g>
</svg>