<?xml version="1.0" encoding="UTF-8"?>
<svg width="48px" height="66px" viewBox="0 0 48 66" version="1.1" xmlns="http://www.w3.org/2000/svg" xmlns:xlink="http://www.w3.org/1999/xlink">
    <!-- Generator: Sketch 63.1 (92452) - https://sketch.com -->
    <title>Group 9</title>
    <desc>Created with Sketch.</desc>
    <g id="v3" stroke="none" stroke-width="1" fill="none" fill-rule="evenodd" stroke-linejoin="bevel">
        <g id="Group-9" transform="translate(0.000000, 1.000000)" fill="#000000" stroke="#000000" stroke-width="0.5">
            <path d="M10.7050155,0.926804287 C10.8975835,-0.328577601 13.1209017,-0.289134563 13.3269867,0.926804287 C15.2102147,12.0381947 17.6774568,27.720375 19.6889135,40.2985072 L19.75,40.688 L19.9556257,40.647025 L19.967,40.732 L19.9853027,40.7293801 C24.9394271,40.0715444 30.0921681,40.9757396 34.0377396,43.9609728 L34.3549776,44.2075894 C35.695338,45.2784775 33.7620422,47.092494 32.4314735,46.0298514 C29.0972255,43.3665581 24.6248591,42.5578685 20.3722399,43.0949484 L20.299,43.104 L20.3107018,43.1821346 L20.155,43.205 L20.2451512,43.7690342 C21.7274987,52.9933821 22.8783859,59.9268726 23.216449,61.0165223 L23.2397277,61.085772 C24.3238254,61.085772 31.9745325,57.5591632 36.6886407,54.8618443 C39.9905836,52.9725874 44.2346954,50.4721305 44.8624454,46.5194297 C45.2301741,44.2024359 37.692823,12.7220344 35.382007,3.0108619 C34.9979589,1.39267671 37.621018,0.708297751 38.0050661,2.32545225 C39.427023,8.30243055 44.6198314,30.7426395 45.8002624,35.9847349 C46.7946531,40.4053695 48.8672071,45.4990454 46.5281042,49.8104267 C44.5023323,53.5466824 40.271276,55.9018118 36.5657018,57.9209358 C32.0942075,60.3574898 27.3768354,62.3745525 22.5125893,63.9978912 C21.5900036,64.3060679 20.8893607,63.5186198 20.7903568,62.7559083 C20.0893939,57.3345029 19.2039963,50.9966791 18.1341641,43.7424371 L18.1,43.515 L18.082584,43.5183074 C17.7969616,43.5881681 17.5135733,43.6640293 17.232869,43.7457224 L16.8138819,43.8726147 C11.1815398,45.6454036 6.64585608,49.5754292 2.84671781,53.7631275 C1.98832145,54.7082714 0.657752695,53.8332145 0.525022206,52.8519965 C0.233450312,50.6937291 0.742613172,48.5942111 1.28223877,46.5091228 C1.83274391,44.3838376 2.37672133,42.2564909 2.9000276,40.1250215 C3.94664014,35.861052 4.93232722,31.5836835 5.85382496,27.2949774 C7.73381091,18.5505932 9.34615996,9.75673584 10.7050155,0.926804287 Z M11.984621,4.35583151 C10.6518763,13.0187911 9.86480797,19.1516938 8.05493651,27.6314759 C7.1391216,31.9223391 2.9000276,48.7088224 2.9000276,50.4865671 C8.05493651,46.5091228 10.3851568,43.1220854 16.8138819,41.3699104 C17.0734774,41.2991512 17.3345413,41.2326281 17.5968516,41.1704231 L17.627,41.163 L17.6177086,41.1111973 L17.74,41.087 L17.6465393,40.4579892 C16.1472332,30.4236246 14.3200432,18.760072 12.1649694,5.46733118 Z" id="Logo"></path>
        </g>
    </g>
</svg>