<?xml version="1.0" encoding="UTF-8"?>
<svg width="83px" height="46px" viewBox="0 0 83 46" version="1.1" xmlns="http://www.w3.org/2000/svg" xmlns:xlink="http://www.w3.org/1999/xlink">
    <!-- Generator: Sketch 63.1 (92452) - https://sketch.com -->
    <title>Imagotipo</title>
    <desc>Created with Sketch.</desc>
    <g id="v3" stroke="none" stroke-width="1" fill="none" fill-rule="evenodd">
        <g id="wb/Home" transform="translate(-131.000000, -3045.000000)" stroke="#000000">
            <g id="Imagotipo" transform="translate(132.000000, 3046.000000)">
                <g id="Group-2">
                    <g id="Group" transform="translate(0.000000, 35.863378)" stroke-width="0.5">
                        <path d="M69.872134,0.891795797 C69.5796614,0.730681044 67.2540021,-0.413276402 65.1568519,0.525505738 C63.0597017,1.46428788 62.8774319,3.71466844 62.8774319,4.30360531 C62.8774319,6.21827028 64.2883238,8.28835418 66.6349611,8.41968344 C68.6539842,8.61506942 69.7495901,7.73652918 69.9688716,7.51688732" id="C"></path>
                        <line x1="72.0963035" y1="0.239089184" x2="72.0963035" y2="8.36812144" id="I" stroke-linecap="square"></line>
                        <path d="M0,8.60721063 L3.43195182,0 L6.77626459,8.60721063 M1.25517249,5.77256398 L5.52668384,5.77256398" id="A" stroke-linecap="square" stroke-linejoin="bevel"></path>
                        <path d="M26.0019455,8.60721063 L29.4338973,0 L32.7782101,8.60721063 M27.257118,5.77256398 L31.5286294,5.77256398" id="A" stroke-linecap="square" stroke-linejoin="bevel"></path>
                        <path d="M46.4883268,8.60721063 L49.9202787,0 L53.2645914,8.60721063 M47.7434993,5.77256398 L52.0150107,5.77256398" id="A" stroke-linecap="square" stroke-linejoin="bevel"></path>
                        <path d="M74.2237354,8.60721063 L77.6556872,0 L81,8.60721063 M75.4789079,5.77256398 L79.7504192,5.77256398" id="A" stroke-linecap="square" stroke-linejoin="bevel"></path>
                        <path d="M55.3132296,8.41049613 L55.3132296,0.0249171077 C57.7856302,-0.00830570258 59.1057572,-0.00830570258 59.2736105,0.0249171077 C59.9931453,0.167332953 60.9863813,0.714755707 60.9863813,2.28385735 C60.9863813,3.32992512 60.4154577,3.97454154 59.2736105,4.21770662 L58.4642119,4.21770662 L55.3132296,4.21770662 M58.5362974,4.30360531 L60.6606964,8.60721063" id="R" stroke-linecap="square"></path>
                        <ellipse id="O" cx="20.5651751" cy="4.22390892" rx="4.17607004" ry="4.22390892"></ellipse>
                        <path d="M8.98249027,8.41049613 L8.98249027,0.0249171077 C11.4548909,-0.00830570258 12.7750179,-0.00830570258 12.9428712,0.0249171077 C13.662406,0.167332953 14.655642,0.714755707 14.655642,2.28385735 C14.655642,3.32992512 14.0847184,3.97454154 12.9428712,4.21770662 L12.1334726,4.21770662 L8.98249027,4.21770662 M12.2055581,4.30360531 L14.3299571,8.60721063" id="R" stroke-linecap="square"></path>
                        <path d="M44.205661,0.664178511 C42.4974861,-0.130787023 40.94387,-0.212122648 39.5448128,0.420171635 C37.4462268,1.36861306 37.348249,3.6768748 37.348249,4.27187135 C37.348249,6.20623663 38.3291826,8.31275802 40.6774264,8.44543855 C44.1009933,8.53089934 44.5972763,6.03453845 44.5972763,4.4629981 M44.5972763,8.44781784 L44.5972763,4.62239089 M41.3668489,4.52228886 L44.8335178,4.52228886" id="G"></path>
                    </g>
                    <path d="M34.6269635,0.415048441 C34.7119023,-0.147146083 35.6925741,-0.129482407 35.783475,0.415048441 C36.6205498,5.42944266 37.7192163,12.5224834 38.6101323,18.1769638 L38.6162218,18.22 L38.7072665,18.2028553 L38.7122218,18.241 L38.7583319,18.2346881 C40.8938694,17.9548384 43.1095749,18.3437586 44.8274809,19.6180927 L45.0586009,19.7973739 C45.6498134,20.2769471 44.7970662,21.0893136 44.2101726,20.613433 C42.7617698,19.4388081 40.8264575,19.0697486 38.9763554,19.2885859 L38.8582218,19.304 L38.8638852,19.3381471 L38.7942218,19.349 L38.8327966,19.5872339 C39.4855109,23.7112588 39.9929051,26.8156754 40.1440662,27.3199205 L40.1558338,27.3558882 C40.6340127,27.3558882 44.0086229,25.7765758 46.0879441,24.5686422 C47.5443808,23.722581 49.4163937,22.6028077 49.6932846,20.8326796 C49.8554842,19.7950661 46.5308736,5.69727679 45.5116079,1.34834674 C45.3422102,0.623678921 46.4992015,0.317195207 46.6685993,1.04140145 C47.2958028,3.71805666 49.5862713,13.7673992 50.1069414,16.1149536 C50.545552,18.0946353 51.4597239,20.3757235 50.4279813,22.3064786 C49.5344443,23.9796765 47.6681899,25.0343682 46.0337177,25.9385875 C44.0614097,27.0297434 41.9806489,27.9330395 39.8351041,28.6600152 C39.4281657,28.7980252 39.1191228,28.4453843 39.0754537,28.1038211 C38.7788115,25.7744511 38.4072841,23.0673035 37.9608714,19.9823783 L37.8892218,19.487 C37.7866086,19.5121587 37.6926752,19.5371344 37.5993797,19.5635898 L37.3214913,19.6473631 C34.8371511,20.4412667 32.8365302,22.2012402 31.1607883,24.0766066 C30.7821628,24.499868 30.1952692,24.1079935 30.1367238,23.6685771 C30.0081159,22.7020456 30.2326998,21.7618238 30.4707205,20.8280639 C30.7135399,19.8763027 30.95348,18.9236184 31.1843024,17.9690878 C31.6459473,16.059565 32.0807188,14.1440418 32.4871774,12.2234413 C33.3164105,8.30746565 34.0275931,4.36933455 34.6269635,0.415048441 Z M35.1913779,1.95066111 C34.6035246,5.83017258 34.2563608,8.57665502 33.4580541,12.3741346 C33.0541021,14.2957011 31.1843024,21.8131499 31.1843024,22.6092728 C33.4580541,20.8280639 34.4858787,19.3112554 37.3214913,18.5265833 C37.4155478,18.5005539 37.5100414,18.4758046 37.6049177,18.4523556 L37.6802218,18.434 L37.676047,18.4107244 L37.7302218,18.399 L37.7018662,18.2072642 C37.049436,13.7707004 36.255426,8.61990096 35.319836,2.75486572 Z" id="Logo" stroke-width="0.5" fill="#000000" stroke-linejoin="bevel"></path>
                </g>
            </g>
        </g>
    </g>
</svg>