<?xml version="1.0" encoding="UTF-8"?>
<svg width="31px" height="43px" viewBox="0 0 31 43" version="1.1" xmlns="http://www.w3.org/2000/svg" xmlns:xlink="http://www.w3.org/1999/xlink">
    <!-- Generator: Sketch 63.1 (92452) - https://sketch.com -->
    <title>Logo</title>
    <desc>Created with Sketch.</desc>
    <g id="v3" stroke="none" stroke-width="1" fill="none" fill-rule="evenodd" stroke-linejoin="bevel">
        <g id="mobile/Home" transform="translate(-32.000000, -36.000000)" fill="#000000" stroke="#000000" stroke-width="0.5">
            <g id="Logo" transform="translate(33.000000, 37.000000)">
                <path d="M6.47766884,0.604112887 C6.59918758,-0.214174628 8.00219754,-0.188464726 8.13224605,0.604112887 C9.32064441,7.84677913 10.8775809,18.068794 12.1468971,26.2675172 L12.193,26.569 L12.0730798,26.586552 C11.7206092,26.6413942 11.3700552,26.7091221 11.0226985,26.7892474 L10.922,26.813 L10.932,26.882 L12.197,26.595 L12.193,26.569 L12.4261419,26.5360231 C15.4907276,26.1356453 18.6672037,26.7153588 21.1218414,28.5931072 L21.4018179,28.8155491 C22.2476433,29.5135793 21.0276501,30.695998 20.1880036,30.0033425 C18.1158286,28.2936481 15.3470503,27.7564731 12.7001793,28.074996 L12.459,28.107 L12.46082,28.1188411 L12.435,28.123 L12.4979071,28.5296885 C13.4333325,34.542336 14.1595921,39.0617486 14.3729246,39.772008 L14.3876144,39.8171465 C15.0717269,39.8171465 19.8996541,37.5184198 22.8744603,35.7602437 C24.9581291,34.5287815 27.6363472,32.8989248 28.0324846,30.3224612 C28.2645373,28.81219 23.5081428,8.29252202 22.0499179,1.96255078 C21.807567,0.907779519 23.4628307,0.461685175 23.7051816,1.51578461 C24.602498,5.41172 27.8793847,20.0387773 28.6242877,23.4556987 C29.2517913,26.3371726 30.5596625,29.6573507 29.0835874,32.4676107 C27.8052377,34.9029902 25.1352581,36.438119 22.7968806,37.7542317 C19.9751742,39.3424351 16.9983083,40.6572041 13.9287586,41.7153345 C13.3465672,41.9162113 12.9044312,41.4029341 12.8419554,40.9057808 C12.4087191,37.4446928 11.8638369,33.4105909 11.2073086,28.803475 L11.144,28.364 L11.1332337,28.3662589 C10.9980536,28.4004116 10.8636665,28.4367643 10.7301923,28.4752707 L10.3326278,28.5972048 C6.77837624,29.7527503 3.91616363,32.3144337 1.51874305,35.0440742 C0.977057812,35.6601413 0.13741137,35.0897586 0.0536526898,34.4501775 C-0.130341788,33.043368 0.190962002,31.6748526 0.531489095,30.3157429 C0.878881654,28.9304319 1.22215493,27.5437772 1.55238383,26.1544351 C2.21284162,23.3750793 2.8348528,20.5869896 3.41635774,17.7915099 C4.60271019,12.0917141 5.62017219,6.35967048 6.47766884,0.604112887 Z M7.28515521,2.83923369 C6.44413567,8.48595501 5.94746152,12.4835256 4.80535434,18.0108475 C4.22743551,20.8077334 1.55238383,31.749559 1.55238383,32.9083349 C4.80535434,30.3157429 6.27582415,28.1079921 10.3326278,26.965883 C10.4468025,26.9337371 10.5614275,26.9029324 10.6764551,26.8734871 L10.922,26.813 L10.9191039,26.7939143 C9.96841883,20.2056196 8.80482161,12.5245703 7.42831223,3.75076661 Z"></path>
            </g>
        </g>
    </g>
</svg>