<?xml version="1.0" encoding="UTF-8"?>
<svg width="85px" height="85px" viewBox="0 0 85 85" version="1.1" xmlns="http://www.w3.org/2000/svg" xmlns:xlink="http://www.w3.org/1999/xlink">
    <!-- Generator: Sketch 51.2 (57519) - http://www.bohemiancoding.com/sketch -->
    <title>mdpi/invision</title>
    <desc>Created with Sketch.</desc>
    <defs></defs>
    <g id="Page-1" stroke="none" stroke-width="1" fill="none" fill-rule="evenodd">
        <g id="Desktop-HD" transform="translate(-270.000000, -5967.000000)" fill-rule="nonzero">
            <g id="invision" transform="translate(270.000000, 5967.000000)">
                <path d="M77.2945508,0 L7.70544922,0 C3.44980469,0 0,3.44980469 0,7.70544922 L0,77.2945508 C0,81.5501953 3.44980469,85 7.70544922,85 L77.2945508,85 C81.5501953,85 85,81.5501953 85,77.2945508 L85,7.70544922 C85,3.44980469 81.5501953,0 77.2945508,0" id="Shape" fill="#DC395F"></path>
                <path d="M28.4069336,26.743457 C31.2325195,26.743457 33.5995703,24.5288086 33.5995703,21.6261914 C33.5995703,18.7255664 31.2325195,16.51125 28.4069336,16.51125 C25.5813477,16.51125 23.2149609,18.7255664 23.2149609,21.6261914 C23.2149609,24.5284766 25.5813477,26.743457 28.4069336,26.743457 M17.6404883,54.1426758 C17.3353516,55.440918 17.1822852,56.8427539 17.1822852,57.9862695 C17.1822852,62.4922656 19.6257031,65.4835352 24.8183398,65.4835352 C29.1247852,65.4835352 32.6160938,62.9262305 35.1299023,58.7967578 L33.5949219,64.9569336 L42.1463867,64.9569336 L47.0338867,45.3541406 C48.2557617,40.3909375 50.6228125,37.814707 54.2120703,37.814707 C57.0373242,37.814707 58.7934375,39.5718164 58.7934375,42.4724414 C58.7934375,43.3128125 58.7170703,44.2282227 58.4116016,45.2213281 L55.8914844,54.2316602 C55.5096484,55.5299023 55.3575781,56.8288086 55.3575781,58.0496875 C55.3575781,62.3272461 57.8766992,65.4559766 63.1457031,65.4559766 C67.6510352,65.4559766 71.2396289,62.5556836 73.2251758,55.6066016 L69.8656836,54.3096875 C68.1856055,58.9650977 66.7346289,59.8067969 65.5891211,59.8067969 C64.4436133,59.8067969 63.8326758,59.0437891 63.8326758,57.5174414 C63.8326758,56.8301367 63.9860742,56.0674609 64.2145117,55.1490625 L66.6585938,46.3708203 C67.2691992,44.3095703 67.4986328,42.4817383 67.4986328,40.8023242 C67.4986328,34.2354102 63.5275391,30.8081836 58.7170703,30.8081836 C54.2120703,30.8081836 49.6300391,34.8719141 47.3396875,39.1488086 L49.0191016,31.4722461 L35.9623047,31.4722461 L34.1294922,38.2337305 L40.2385352,38.2337305 L36.4766211,53.294668 C33.5225391,59.861582 28.0961523,59.9681641 27.4151563,59.8157617 C26.296875,59.563418 25.5816797,59.13875 25.5816797,57.6857813 C25.5816797,56.8474023 25.7344141,55.643125 26.11625,54.1911523 L31.8437891,31.4722461 L17.3353516,31.4722461 L15.5025391,38.2337305 L21.5345508,38.2337305 L17.6408203,54.1426758" id="Shape" fill="#FFFFFF"></path>
            </g>
        </g>
    </g>
</svg>